# xmcd
#
# Track frame offsets:
#	150
#	14050
#	36277
#	66557
#	86642
#	114272
#	149110
#	174542
#	201629
#	228736
#	258001
#	290028
#	311153
#	335455
#
# Disc length: 4751 seconds
#
# Revision: 1
# Processed by: cddbd v1.5.2PL0 Copyright (c) Steve Scherf et al.
# Submitted via: audiograbber 1.83.01
#
DISCID=e4128d0e
DTITLE=Leonard Cohen - Greatest Hits  CD1
DYEAR=2007
DGENRE=Ballads
TTITLE0=Because Of
TTITLE1=In My Secret Life
TTITLE2=The Future
TTITLE3=I'm Your Man
TTITLE4=Dance Me to the End of Love (Live)
TTITLE5=Waiting for the Miracle
TTITLE6=Everybody Knows
TTITLE7=Take This Waltz
TTITLE8=Closing Time
TTITLE9=A Thousand Kisses Deep
TTITLE10=Democracy
TTITLE11=There for You
TTITLE12=Love Itself
TTITLE13=Hallelujah
EXTD=
EXTT0=
EXTT1=
EXTT2=
EXTT3=
EXTT4=
EXTT5=
EXTT6=
EXTT7=
EXTT8=
EXTT9=
EXTT10=
EXTT11=
EXTT12=
EXTT13=
PLAYORDER=
